<svg
      id="paw"
      width="151"
      height="127"
      viewBox="0 0 151 127"
      fill="white"
      xmlns="http://www.w3.org/2000/svg"
    >
      <path
        d="M51 0C61.4934 0 70 13.2076 70 29.5C70 45.7924 61.4934 59 51 59C40.5066 59 32 45.7924 32 29.5C32 13.2076 40.5066 0 51 0Z"
        fill="#ffd700"
      />
      <path
        d="M99.5 0C110.27 0 119 13.2076 119 29.5C119 45.7924 110.27 59 99.5 59C88.7304 59 80 45.7924 80 29.5C80 13.2076 88.7304 0 99.5 0Z"
        fill="#ffd700"
      />
      <path
        d="M11.321 43.5293C20.3348 41.0279 30.439 49.8115 33.8894 63.1481C37.3397 76.4848 32.8296 89.3241 23.8158 91.8256C14.802 94.3271 4.69777 85.5435 1.24742 72.2068C-2.20294 58.8702 2.30715 46.0308 11.321 43.5293Z"
        fill="#ffd700"
      />
      <path
        d="M139.679 43.5293C148.693 46.0308 153.203 58.8702 149.753 72.2068C146.302 85.5435 136.198 94.3271 127.184 91.8256C118.17 89.3241 113.66 76.4848 117.111 63.1482C120.561 49.8115 130.665 41.0279 139.679 43.5293Z"
        fill="#ffd700"
      />
      <path
        d="M114.835 127C142.019 127 114.835 79.5 75.0291 68C33.767 80.5 14.835 127 33.767 127C50.2718 127 58.0388 114.5 75.0291 114.5C90.0777 114.5 87.6505 127 114.835 127Z"
        fill="#ffd700"
      />
    </svg>