<?xml version="1.0" encoding="UTF-8"?>
<!DOCTYPE svg  PUBLIC '-//W3C//DTD SVG 1.1//EN'  'http://www.w3.org/Graphics/SVG/1.1/DTD/svg11.dtd'>
<svg enable-background="new 0 0 1920 1860" version="1.1" viewBox="0 0 1920 1860" xml:space="preserve" xmlns="http://www.w3.org/2000/svg">
<g stroke-width=".0938">
	<path d="m616.72 38.77c21.05-12.55 45.74-19.38 70.3-17.7 5.96 0.32 9.47 6.03 12.25 10.63 7.49 14.15 12.01 29.61 17.42 44.63 0.81 3.32 5 2.82 7.29 4.67 5.77 4.28 8.76 11.14 11.39 17.6 7.4 19.59 10.62 40.39 14.02 60.95 6.8 47.23 10.64 94.81 14.13 142.37 6.34 85.69 10.85 171.49 18.38 257.09 2.16 24.59 4.5099 49.17 7.52 73.68 0.31 2.78 0.62 5.56 0.96 8.35 1.26 7.59 1.08 15.55 4.04 22.78-0.03 2.61-0.4 5.38-2.25 7.39-10.28 11.68-21.72 22.27-33.25 32.71-12.12 10.95-25.2 20.76-37.64 31.34-8.08 7.03-16.99 13-25.3 19.74-7.44 5.88-14.77 11.9-22.25 17.72-6.77 5.33-14.29 9.59-20.99 15.01-5.48 4.42-11.79 7.61-17.69 11.4-10.03 6.8-20.7 12.55-30.96 19-19.53 10.07-38.65 21.36-59.81 27.79 0.16-14.38 0.43-28.78-0.11-43.15-0.14-1.46-0.32-2.91-0.47-4.35 1.2-5.06 0.49-10.28 0.55-15.41-1.99-81.21-8.38-162.61-24.95-242.25-8.31-39.25-19.15-78.14-34.95-115.09-9.5-21.8-20.7-42.98-34.99-62.05-10.13-13.05-20.89-26.51-35.97-34.06-15.8-8.28-34.65-9.14-51.74-4.83-23.3 5.79-43.97 19.31-61.37 35.53-0.9 1.03-2.6 1.99-2.07 3.62 2.43 10.61 10.89 18.15 16.27 27.21-7.16-1.9-13.97-4.92-20.74-7.88-5.92-2.59-11.47-5.96-16.42-10.12-1.54 10.84 2.59 21.43 5.23 31.78-7.85-3.86-14.31-9.9-20.89-15.54-4.36-3.7-7.86-8.3-12.27-11.92-1.19 12.37 3.64 24.12 6.61 35.89-4.87-0.88-9.17-3.43-13.33-5.98-7.25-4.56-14.3-9.56-20.32-15.67-1.41-1.38-2.8-2.78-4.38-3.96-1.19 2.45-0.61 5.29-0.53 7.91 1.41 10.86 5.84 20.99 10.27 30.9-7.75-2.96-13.84-8.87-20.26-13.93-7.26-5.76-13.44-12.67-19.98-19.18-0.63 9.64 1.01 19.29-0.03 28.93-2.95-1.49-5.7-3.38-7.96-5.8-7.75-8.09-14.69-17-20.3-26.71 0.82 13.09 4.23 25.89 4.75 39-3.39-0.68-6.55-2.27-8.96-4.76-10.44-9.93-18.31-22.21-25.42-34.64-7.43-12.4-8.56-27.14-13.06-40.63-4.92 7.81-6.48 17.07-8.96 25.82-1.47 4.76-2.08 10.2-5.79 13.86-7.51-16.59-11.22-34.69-13.16-52.72-4.06-45.41 7.46-90.72 24.8-132.39 1.79-4.84 4.6-9.32 5.78-14.37-0.41-5.41-2.95-10.34-4.7-15.39-5.21-13.96-10.78-29.17-7.01-44.18 0.44-3.66 4.68-3.82 7.54-4 16.3-0.46 32.35 3 48.47 4.82 47.13 3.26 94.32 5.56 141.55 6.43 31.3 0.11 62.66 0.86 93.92-1.21 10.78-1.06 21.71-1.53 32.24-4.31 4.29-1.2 6.98-5.05 9.65-8.33 9.95-13.56 17.83-28.54 28.15-41.83 6.37-7.92 13.52-16.61 23.91-18.97 9.28-1.64 18.81-0.97 28.05-2.89 9.55-1.61 18.73-4.72 28.06-7.17 19.57-5.53 39.82-8.15 60.03-9.87 2.88-0.2 5.28-1.92 7.7-3.31m-2.36 53.59c-5.97 12.44-11.45 25.14-15.78 38.26-13.92 40.88-17.45 85.27-9.93 127.81 0.78 3.69 1.6 7.77 4.5099 10.43 1.2 1.04 3.71 1.57 4.3701-0.33 2.02-3.66 1.81-8.03 3.16-11.92 1.54-1.51 2.97 0.6 4.11 1.57 4.88 5.14 7.19 13.51 14.93 15.19 0.05-4.28 0.43-8.55 1.13-12.78 6.64 4.12 10.86 11.19 17.98 14.64-0.11-3.86-0.39-7.72-0.65-11.57 8.51 1.34 14.29 8.62 22.54 10.69 0.02-3.86-0.13-7.73 0.3-11.57 4.87 0.82 8.46 4.68 13.16 6.01 7.12 2 14.67 3.38 22.05 2.01-3.43-5.06-8.94-9.47-8.37-16.22 6.33 1.55 11.22 7.48 18.17 6.52 3.31 0.16 6.66-1.45 7.08-5.04 15.48-55.17 16.65-114.07 5.2-170.12 1.89 21.63 2.1 43.36 1.67 65.05-0.99 23.42-3.7 46.77-8.28 69.76-1.58 7.18-2.88 14.46-5.3 21.42-0.81-4.37-1.31-8.8-2.49-13.09-1.74-5.6-4.94-11.38-10.73-13.55-0.39 10.92 3.78 21.28 4.38 32.1-5.78-3.21-8.39-9.55-10.85-15.32-2.14-4.88-3.15-10.38-6.61-14.57-0.87 2.3-1.48 4.73-1.37 7.21 0.26 9.46 2.77 18.69 3.05 28.15-4.6-5.73-8.22-12.21-10.79-19.09-1.5-3.8-2.55-7.82-4.64-11.36-0.48-0.88-1.2-1.41-2.17-1.59-1.2 1.74-1.98 3.77-2.06 5.9-0.67 9 3.17 17.57 2.84 26.56-9.03-5.45-9.3-16.84-13.22-25.5-1.72 0.21-3.3 1.31-3.4 3.17-1.2599 8.02 0.8 16.2-0.71 24.24-7.43-7.33-7.16-18.82-13.3-26.95-5.05 7.34-3.7 16.42-4.27 24.79-7.21-4.93-9.37-13.73-11.54-21.64-5.57 0.85-5.33 7.63-7.8101 11.51-3.9399-3.11-5.18-8.35-7.14-12.76-7.83-22.35-6.23-46.61-2.89-69.66 3.45-21.78 9.19-43.14 15.9-64.12 2.06-6.53 4.58-12.92 6.29-19.57-3.2499 4.87-5.9499 10.08-8.5199 15.33m-128.94 18.23c-7.06 2.65-11.19 9.97-12.79 17-0.91 5.5-1.02 11.68 2.26 16.47 1.95 2.95 5.53 4.9 9.11 4.27 5.84-0.89 10-5.86 12.44-10.91 3.28-7.06 4.33-16.02 0.03-22.88-2.23-3.71-6.98-5.31-11.05-3.95m-193.63 26.89c30.31 1.36 60.69 0.92 91.02 0.31l0.05-0.66c-5.28 0.16-10.56 0.26-15.84 0.12-25.07-0.61-50.16 0.01-75.23 0.23m-148.12 19.18c-6.49 3.12-11.01 9.43-12.89 16.28 5.09-5.55 9.36-13.05 17.53-14.26-1.36 7.88-5.49 15.16-5.44 23.3-0.04 3.93 0.16 8.93 3.95 11.19 5.07 2.76 11.19 3.55 16.84 2.43 6.76-1.49 12.28-6.34 15.52-12.34-5.91 3.21-11.54 7.4-18.34 8.49-4.63 0.78-10.01 0.42-13.48-3.11-2.34-2.14-2.73-5.57-2.24-8.54 1.33-9.03 7.9-16.2 9.29-25.23-3.62 0.16-7.42 0.14-10.74 1.79m100.29 55.57c15.18 6.91 30.67 13.28 45.17 21.6 2.16 1.37 4.09 3.06 6.02 4.73-8.55 2.11-17.08 4.38-25.42 7.23-4.68 1.7-9.54 3.35-13.48 6.48-0.32 2 2.16 2.23 3.43 3.06 13.55 5.57 27.36 12.71 36.1 24.9 7.29 9.82 10.42 22.02 11.87 33.99 0.5 4 0.02 8.02-0.72 11.96-3.53-6.29-7.3-12.54-12.61-17.5-6.19-5.79-12.84-11.89-21.35-13.83 2.47 6.6 6.33 12.52 9.5 18.77 5.33 10.14 11.38 20.62 11.17 32.45 5.14-2.91 10.01-6.26 15.06-9.31 13.28-7.76 27.25-14.43 41.91-19.15 14.7-4.52 29.82-7.48 44.98-10 3.7-0.57 7.28-1.7 10.76-3.07-31.45-15.91-64.88-27.98-99.29-35.62-1.61-0.48-3.16-1.13-4.65-1.89 2.56-1.73 5.51-2.81 8.58-3.19 11.36-1.92 22.79 1.25 34.2 0.08-5.57-6.59-12.9-11.28-19.89-16.19-19.26-12.47-40.02-22.63-61.59-30.43-6.39-2.36-12.99-4.2-19.75-5.07m-122.71 10.99c-6.66 10.05-13.05 20.37-17.53 31.59-9.12 21.43-12.38 45.04-11.4 68.2 1.15 14.9 2.7 29.84 6.21 44.4 0.63 2.22 1.22 4.78 3.38 6.05 4.01-6.41 4.63-14.18 7.52-21.06 1.45-4.03 4.28-7.42 5.56-11.5 0.71-5.09-0.4-10.21-0.51-15.31-1.44-30.44 0.92-61.19 8.28-90.8 1.74-7.04 4.21-13.87 6.04-20.88-2.76 2.9-5.37 5.95-7.55 9.31m424.34 580.5c-1.03 10.72-0.4301 21.49-0.3 32.23l0.77-0.07c-0.19-10.72 0.88-21.48-0.47-32.16z" fill="#E67817" stroke="#E67817"/>
	<path d="m614.36 92.36c2.57-5.25 5.27-10.46 8.52-15.33-1.71 6.65-4.23 13.04-6.29 19.57-6.71 20.98-12.45 42.34-15.9 64.12-3.34 23.05-4.94 47.31 2.89 69.66 1.96 4.41 3.2 9.65 7.14 12.76 2.48-3.88 2.2401-10.66 7.8101-11.51 2.17 7.91 4.33 16.71 11.54 21.64 0.57-8.37-0.78-17.45 4.27-24.79 6.14 8.13 5.87 19.62 13.3 26.95 1.51-8.04-0.55-16.22 0.71-24.24 0.1-1.86 1.6801-2.96 3.4-3.17 3.92 8.66 4.19 20.05 13.22 25.5 0.33-8.99-3.5099-17.56-2.84-26.56 0.08-2.13 0.86-4.16 2.06-5.9 0.97 0.18 1.69 0.71 2.17 1.59 2.09 3.54 3.14 7.56 4.64 11.36 2.57 6.88 6.19 13.36 10.79 19.09-0.28-9.46-2.79-18.69-3.05-28.15-0.11-2.48 0.5-4.91 1.37-7.21 3.46 4.19 4.47 9.69 6.61 14.57 2.46 5.77 5.07 12.11 10.85 15.32-0.6-10.82-4.77-21.18-4.38-32.1 5.79 2.17 8.99 7.95 10.73 13.55 1.18 4.29 1.68 8.72 2.49 13.09 2.42-6.96 3.72-14.24 5.3-21.42 4.58-22.99 7.29-46.34 8.28-69.76 0.43-21.69 0.22-43.42-1.67-65.05 11.45 56.05 10.28 114.95-5.2 170.12-0.42 3.59-3.77 5.2-7.08 5.04-6.95 0.96-11.84-4.97-18.17-6.52-0.57 6.75 4.94 11.16 8.37 16.22-7.38 1.37-14.93-0.01-22.05-2.01-4.7-1.33-8.29-5.19-13.16-6.01-0.4301 3.84-0.28 7.71-0.3 11.57-8.25-2.07-14.03-9.35-22.54-10.69 0.26 3.85 0.54 7.71 0.65 11.57-7.1201-3.45-11.34-10.52-17.98-14.64-0.7 4.23-1.08 8.5-1.13 12.78-7.74-1.68-10.05-10.05-14.93-15.19-1.14-0.97-2.57-3.08-4.11-1.57-1.35 3.89-1.14 8.26-3.16 11.92-0.66 1.9-3.17 1.37-4.3701 0.33-2.91-2.66-3.73-6.74-4.5099-10.43-7.52-42.54-3.9901-86.93 9.93-127.81 4.3299-13.12 9.8099-25.82 15.78-38.26z" fill="#AF5726" stroke="#AF5726"/>
	<path d="m485.42 110.59c4.07-1.36 8.82 0.24 11.05 3.95 4.3 6.86 3.25 15.82-0.03 22.88-2.44 5.05-6.6 10.02-12.44 10.91-3.58 0.63-7.16-1.32-9.11-4.27-3.28-4.79-3.17-10.97-2.26-16.47 1.6-7.03 5.73-14.35 12.79-17m-0.93 6.73c-2.13 1.17-2.66 4.28-1.03 6.11 1.77 2.59 6.28 1.55 6.79-1.56 1.07-3.21-2.88-6.6-5.76-4.55z" fill="#1F1917" stroke="#1F1917"/>
	<path d="m484.49 117.32c2.88-2.05 6.83 1.34 5.76 4.55-0.51 3.11-5.02 4.15-6.79 1.56-1.63-1.83-1.1-4.94 1.03-6.11z" fill="#FBFDFE" stroke="#FBFDFE"/>
	<path d="m291.79 137.48c25.07-0.22 50.16-0.84 75.23-0.23 5.28 0.14 10.56 0.04 15.84-0.12l-0.05 0.66c-30.33 0.61-60.71 1.05-91.02-0.31z" fill="#C57A35" stroke="#C57A35"/>
	<path d="m143.67 156.66c3.32-1.65 7.12-1.63 10.74-1.79-1.39 9.03-7.96 16.2-9.29 25.23-0.49 2.97-0.1 6.4 2.24 8.54 3.47 3.53 8.85 3.89 13.48 3.11 6.8-1.09 12.43-5.28 18.34-8.49-3.24 6-8.76 10.85-15.52 12.34-5.65 1.12-11.77 0.33-16.84-2.43-3.79-2.26-3.99-7.26-3.95-11.19-0.05-8.14 4.08-15.42 5.44-23.3-8.17 1.21-12.44 8.71-17.53 14.26 1.88-6.85 6.4-13.16 12.89-16.28z" fill="#B3561F" stroke="#B3561F"/>
	<path d="m243.96 212.23c6.76 0.87 13.36 2.71 19.75 5.07 21.57 7.8 42.33 17.96 61.59 30.43 6.99 4.91 14.32 9.6 19.89 16.19-11.41 1.17-22.84-2-34.2-0.08-3.07 0.38-6.02 1.46-8.58 3.19 1.49 0.76 3.04 1.41 4.65 1.89 34.41 7.64 67.84 19.71 99.29 35.62-3.48 1.37-7.06 2.5-10.76 3.07-15.16 2.52-30.28 5.48-44.98 10-14.66 4.72-28.63 11.39-41.91 19.15-5.05 3.05-9.92 6.4-15.06 9.31 0.21-11.83-5.84-22.31-11.17-32.45-3.17-6.25-7.03-12.17-9.5-18.77 8.51 1.94 15.16 8.04 21.35 13.83 5.31 4.96 9.08 11.21 12.61 17.5 0.74-3.94 1.22-7.96 0.72-11.96-1.45-11.97-4.58-24.17-11.87-33.99-8.74-12.19-22.55-19.33-36.1-24.9-1.27-0.83-3.75-1.06-3.43-3.06 3.94-3.13 8.8-4.78 13.48-6.48 8.34-2.85 16.87-5.12 25.42-7.23-1.93-1.67-3.86-3.36-6.02-4.73-14.5-8.32-29.99-14.69-45.17-21.6z" fill="#AF5727" stroke="#AF5727"/>
	<path d="m121.25 223.22c2.18-3.36 4.79-6.41 7.55-9.31-1.83 7.01-4.3 13.84-6.04 20.88-7.36 29.61-9.72 60.36-8.28 90.8 0.11 5.1 1.22 10.22 0.51 15.31-1.28 4.08-4.11 7.47-5.56 11.5-2.89 6.88-3.51 14.65-7.52 21.06-2.16-1.27-2.75-3.83-3.38-6.05-3.51-14.56-5.06-29.5-6.21-44.4-0.98-23.16 2.28-46.77 11.4-68.2 4.48-11.22 10.87-21.54 17.53-31.59z" fill="#AF5727" stroke="#AF5727"/>
	<path d="m789.42 632.69c10.16-4.03 20.39-9.36 31.57-9.32 4-0.32 6.65 3.17 8.31 6.33-1.15 11.12-7.96 20.43-14.69 28.92-13.92 16.97-29.94 32.07-46.18 46.78-21.93 19.87-44.81 38.66-67.95 57.1-11.63 9.07-23.07 18.43-35.23 26.79-25.72 17.7-52.85 33.35-80.97 46.92-14.57 6.95-29.41 13.43-44.83 18.27-10.81 3.32-22.37 6.37-33.67 3.65-2.55-2.28-4.8-5.51-3.99-9.12 1.59-7.89 6.77-14.41 11.68-20.54 5.38-6.59 11.32-12.68 17.46-18.55 4.15-3.95 8.05-8.2 12.77-11.5 0.15 1.44 0.33 2.89 0.47 4.35-7.17 6.29-13.68 13.3-19.82 20.59-4.35 5.56-9.21 11.48-10.02 18.74-0.46 3.37 2.12 6.38 5.33 7.06 8.31 1.89 16.71-0.85 24.62-3.24 21.16-6.43 40.28-17.72 59.81-27.79 10.26-6.45 20.93-12.2 30.96-19 5.9-3.79 12.21-6.98 17.69-11.4 6.7-5.42 14.22-9.68 20.99-15.01 7.48-5.8199 14.81-11.84 22.25-17.72 8.31-6.74 17.22-12.71 25.3-19.74 12.44-10.58 25.52-20.39 37.64-31.34 11.53-10.44 22.97-21.03 33.25-32.71 1.85-2.01 2.22-4.78 2.25-7.39 0.41 0.92 0.85 1.84 1.31 2.76 4.06-5.12 8.23-10.55 9.72-17.05 0.86-3.42-0.34-7.7401-3.88-9.08-3.66-1.25-7.54-0.03-11.19 0.59-0.3401-2.79-0.6501-5.57-0.9601-8.35z" fill="#85C227" stroke="#85C227"/>
	<path d="m829.3 629.7c7.52 10.49 14.91 21.08 22.42 31.58 1.21 1.79 2.7 3.46 3.3701 5.56-8.22 13.44-17.53 26.24-27.56 38.38-23.27 28.14-50.39 52.88-79.27 75.12-36.55 28.12-75.07 53.86-116.06 75.08-29.27 15.4-59.97 27.86-91.22 38.6-0.96 0.34-1.92 0.68-2.88 1.02-2.12 0.42-4.36 1.03-6.5 0.45-1.79-1.46-3.06-3.42-4.36-5.28-7.12-10.72-14.37-21.34-21.46-32.08 11.3 2.72 22.86-0.33 33.67-3.65 15.42-4.84 30.26-11.32 44.83-18.27 28.12-13.57 55.25-29.22 80.97-46.92 12.16-8.36 23.6-17.72 35.23-26.79 23.14-18.44 46.02-37.23 67.95-57.1 16.24-14.71 32.26-29.81 46.18-46.78 6.7299-8.49 13.54-17.8 14.69-28.92z" fill="#00923F" stroke="#00923F"/>
	<path d="m790.38 641.04c3.65-0.62 7.53-1.84 11.19-0.59 3.54 1.34 4.74 5.66 3.88 9.08-1.49 6.5-5.66 11.93-9.72 17.05-0.46-0.92-0.9-1.84-1.31-2.76-2.96-7.23-2.78-15.19-4.04-22.78z" fill="#04913E" stroke="#04913E"/>
	<path d="m1658.5 702.49c3.0599-1.24 7.2999-1.48 9.2899 1.72 3.99 6.08 4.49 13.65 4.78 20.72 0.6801 24.61-3.1899 49.14-9.0599 72.97-2.12 7.98-4.4501 16.01-8.3201 23.33-1.5599 2.6-3.6799 6.12-7.24 5.36-20.95-1.4901-42.1-1.78-62.92 1.22-21.95 2.98-43.78 9.06-63.04 20.19-13.24 7.95-26.02 18.55-31.74 33.32-3.67 8.78-1.7101 18.42-0.2201 27.45 14.54 92.33 54.95 177.93 73.74 269.25 1.2699 6.0699 1.8099 12.56 5.3099 17.89 4.53 6.9399 10.48 12.84 16.7 18.29 14.3 12.69 30.17 23.43 46.14 33.88 19.3 12.35 39.17 23.8 59.38 34.58 15.8 8.1899 31.36 17.12 48.38 22.58 33.05 10.87 67.56 16.51 100.56 27.52 13.53 4.8099 27.21 10.29 38.34 19.61 5.15 4.24 9.28 9.63 12.24 15.61-15.41-3.89-31.5-0.89-46.5 3.34-11.65 3.4401-23.09 8.05-33.17 14.9-5.1699 3.62-10.94 8.6-10.17 15.61 17.99 1.49 35.56-5.6 53.61-4.14 0.3 0.16 0.9 0.4901 1.1899 0.65-15.99 2.8101-31.47 7.92-46.5 13.98-4.8099 2.0601-9.7 4.02-14.13 6.8201-1.2599 0.7-2.0699 1.91-2.61 3.21 14.32 0.74 30.1-0.6 42.65 7.7101-14.99 2.0599-28.59 10.44-38.02 22.14-3.62 4.75-8.5299 9.39-8.58 15.81-8.73 96.79-39.55 189.49-60.79 283.85-1.4199 5.61-2 11.69-5.49 16.52-7.01 10.28-18.35 16.44-29.3 21.69-27.16 12.11-56.66 17.91-86.03 21.6-23.61 2.75-47.43 3.61-71.17 2.47-20.25-1.3-40.6-3.8101-59.98-10.02-13.02-4.3099-26.1-10.21-35.57-20.42-6.7201-7.13-10.54-16.94-9.99-26.75 0.58-9.5299 3.1499-18.79 5.6299-27.97 8.29-27.78 20.91-54.02 34.49-79.55 19.79-36.73 42.2-71.97 65.45-106.58 30.83-46.2 63.55-91.1 95.23-136.71 2.99-3.33-0.2-7.1901-2.99-9.27-7.6801-5.78-16.66-9.49-25.45-13.22-19.36-7.99-38.92-15.47-58.55-22.77-16.74-6.0601-33.19-12.84-49.8-19.22-32.94-12.98-65.39-27.19-97.18-42.77-34.54-17.4-68.27-36.65-99.48-59.55-23.81-17.85-46.57-37.49-65.13-60.86-3.5701-4.51-7.62-9.34-13.55-10.52-10.41-2.24-21.07 0.24-31.21 2.7001-18.65 5.02-36.75 11.92-54.45 19.6-16.55 6.34-32.48 14.19-48.63 21.45-41.06 18.97-81.8 38.64-123.24 56.75-37.68 16.33-75.91 31.83-115.68 42.35-8.49 2.1499-17.03 4.1399-25.67 5.59 2.94 23.15-3.48 45.95-5.1 68.93-0.15-0.6799-0.44-2.0399-0.58-2.72-0.97 6.5-1.02 13.17 0.72 19.55 2.93 25.5 13.35 49.19 21.55 73.26-5.98-5.4801-12.2-10.83-19.35-14.72-2.11-1.09-4.3-2.3099-6.7401-2.12 0.9301 5.1901 4.27 9.52 6.72 14.09 4.02 7.3999 9.09 14.31 11.91 22.31-4.86-2.38-9.68-5.35-15.25-5.49-2.5 2.84-2.53 6.87-2.79 10.45-0.1 6.3401-0.5 13.25 3.02 18.85 3.71 6.21 9.8 11.54 10.15 19.24-4.52-0.3-8.71-2.22-13.19-2.73-0.46 0.83-0.72 1.73-0.78 2.7-3.63 48.5-10.91 97.02-25.9 143.41-5.89 18.22-13.18 36.01-22.07 52.99-4.23 8.4-12.99 12.97-21.07 16.94-21.46 9.7101-44.83 14.16-67.97 17.74-13.6 1.63-27.23 3.6001-40.95 3.4301-11.59-1-23.31-1.08-34.9 0.01-13.18 0.22-26.3-1.76-39.26-4.05-16.14-3.21-32.5-7.95-45.93-17.81-8.27-6.05-14.57-15.17-15.8-25.48-1.29-9.8401 2.22-19.34 5.09-28.56 11.26-34.81 26.66-68.12 43.38-100.6 17.86-34.73 37.5-68.49 56.44-102.64 18.94-33.85 37.35-68.15 51.73-104.23 12.38-31.81 21.88-65.85 19.24-100.3-0.37-5.98-1.21-11.93-2.7-17.73-2.27 1.9301-4.9 3.87-5.6899 6.92-1.61 5.3099-1.86 10.9-2.66 16.38-6.25-7.15-7.16-16.94-7.9-25.98-0.47-7.45-0.95-14.94-2.83-22.19-2.73 2.35-5.08 5.35-5.28 9.11-1.64 11.26 0.15 22.62 0.15 33.93-5.17-9.61-7.03-20.48-9.79-30.92-2.9-11.02-4.58-22.44-9.1299-32.95-3.75 9.8199 0.48 20.01 2.21 29.78 1.99 10.7 5.95 21.08 6.35 32.04-6.41-10.08-12.37-20.48-17.62-31.21-3.16-7.5601-7.3-14.64-10.75-22.06-33.28-69.67-56.6-144.38-66.22-221.08-1.24-11.45-2.9-22.9-3.01-34.43 0.4-5.08 0.64-10.18 0.41-15.28l-0.63-0.06c-0.19 2.65-0.4 5.3-0.47 7.96-0.96-17.99-0.93-36.04-0.22-54.04 0.16-5.47 1.25-10.93 0.71-16.41 1.21-2.21 2.42-4.41 3.63-6.61 31.25-10.74 61.95-23.2 91.22-38.6 40.99-21.22 79.51-46.96 116.06-75.08 28.88-22.24 56-46.98 79.27-75.12 11.17 18.36 29.21 31.25 47.68 41.55 22.33 12.23 46.35 21.01 70.65 28.43 42.52 12.74 86.2 21.1 130 27.94 46.79 7.21 93.88 12.32 141.03 16.45 49.62 4.24 99.41 0.45 149.11 0.55 25.35-0.1 50.79-0.15 75.97 3.12 11.38 1.73 23.02 3.79 33.14 9.59 3.74 2.4 7.48-1.38 10.64-3.15 13.59-9.87 25.86-21.43 38.61-32.34 28.35-24.83 56.81-49.76 88.11-70.86 14.46-9.5401 29.57-18.47 46.07-24.01m-508.96 291.29c-1.1699 16.8-0.38 33.98 4.38 50.22 2.54 9.49 0.87 19.72-3.61 28.38-7.09 13.84-18.8 24.61-30.84 34.14-15.14 12.01-31.82 21.86-48.58 31.38-17.24 9.16-34.44 18.41-51.97 26.99-15.97 8-32.04 15.81-47.77 24.27-7.09 4.21-14.83 7.75-20.51 13.9 8.67-0.9 16.61-4.7301 24.75-7.5801 21.89-8.33 43.4-17.61 64.71-27.33 31.57-14.75 63.26-29.87 91.7-50.22-7.49 10.11-17.62 17.81-27.54 25.37-13.5 9.8199-27.84 18.42-42.39 26.58-36.68 20.2-75.11 36.99-113.57 53.46-6.85 3.17-14.11 5.54-20.48 9.7001 7.7-0.4701 15.07-2.8301 22.5-4.7101 19.43-5.48 38.82-11.22 57.75-18.26 35.35-12.6 69.95-27.99 101.39-48.62 8.41-5.46 15.99-12.07 24.32-17.64-17.38 23.26-41.23 40.91-66.76 54.34-34.15 18.29-71.31 29.76-106.76 45.11-15.77 6.89-31.57 14.24-45.32 24.73 8.79-0.74 17.04-4.03 25.41-6.5699 61.52-20.55 121.42-45.83 179.59-74.47 8.8201-4.48 17.5-9.22 26.32-13.7 14.78-8.25 32-10.83 48.71-11.35 9.42-0.0701 19.27 0.03 27.97 4.14 10.46 5.08 20.31 11.32 29.77 18.06-8.91-12.68-18.6-24.8-27.08-37.78-10.49-15.58-20.13-31.75-28.41-48.61-17.95-35.52-29.16-74.55-31.74-114.31-0.98-11.15-0.46-22.34-0.8-33.51-10.67 11.95-13.74 28.43-15.14 43.89m-318.68 186.43c6.16 3.67 12.79 6.4301 19.15 9.74 5.59 2.9301 11.81 5.01 16.33 9.63-9.38-0.46-18.64-2.1899-27.99-3.0699-4.76-0.24-9.92-1.42-14.41 0.7 0.41 2.74 3 4.23 5.06 5.74 13.41 8.64 27.49 16.25 40.58 25.39 1.95 1.7001 4.83 3.02 5.47 5.75-6.27 0.23-12.25-1.9-18.34-2.96-7.13-1.29-14.49-2.13-21.7-0.99-3.65 0.6799-7.61 2.45-9.24 6.01-0.71 2.47 1.18 4.62 2.92 6.13 6.8 5.8199 15.48 8.51 23.38 12.43-8.12-0.27-17.04-1.36-24.3 3.13-4.07 2.52-4.79 8.01-2.72 12.08 2.14 6.08 8.04 9.5499 11.11 15.01-2.99 3.6-8.03 4.6399-11.05 8.25-4.16 4.5199-4.87 10.9-5.1 16.78 10.16-1.62 20.12-4.47 29.7-8.23 12.94-5.21 25.36-12.79 34.2-23.78 11.79-13.89 17.54-32.13 18.86-50.08-5.94-2.8-7.54-9.59-11.23-14.44-8.69-11.85-21.96-19.17-35.21-24.83-8.3-3.33-16.68-6.61-25.47-8.39z" fill="#E67817" stroke="#E67817"/>
	<path d="m524.35 823.36c6.14-7.29 12.65-14.3 19.82-20.59 0.54 14.37 0.27 28.77 0.11 43.15-7.91 2.39-16.31 5.13-24.62 3.24-3.21-0.68-5.79-3.69-5.33-7.06 0.8101-7.26 5.6701-13.18 10.02-18.74z" fill="#02923F" stroke="#02923F"/>
	<path d="m545.59 803.72c1.35 10.68 0.28 21.44 0.47 32.16l-0.77 0.07c-0.13-10.74-0.73-21.51 0.3-32.23z" fill="#D18F32" stroke="#D18F32"/>
	<path d="m527.24 890.21c1.3 1.86 2.57 3.82 4.36 5.28 2.14 0.58 4.38-0.03 6.5-0.45-13.79 25.77-25.68 52.74-32.74 81.18-2.34 8.7-3.55 17.64-5.56 26.41-1.52-1.03-3.07-1.98-4.66-2.87-3.07-1.77-6.45-2.85-9.67-4.28-0.11-0.34-0.33-1-0.44-1.33 0.57-9.25 2.85-18.32 4.86-27.34 6.88-27.73 18.32-54.96 37.35-76.6z" fill="#71706E" stroke="#71706E"/>
	<path d="m538.1 895.04c0.96-0.34 1.92-0.68 2.88-1.02-1.21 2.2-2.42 4.4-3.63 6.61-16.78 31.22-29.52 64.95-34.67 100.12-0.21 1.15-0.41 2.31-0.61 3.48-0.57-0.4-1.7-1.2-2.27-1.6 2.01-8.77 3.22-17.71 5.56-26.41 7.06-28.44 18.95-55.41 32.74-81.18z" fill="#040100" stroke="#040100"/>
	<path d="m1149.6 993.78c1.4-15.46 4.4701-31.94 15.14-43.89 0.3401 11.17-0.1799 22.36 0.8 33.51 2.58 39.76 13.79 78.79 31.74 114.31 8.28 16.86 17.92 33.03 28.41 48.61 8.48 12.98 18.17 25.1 27.08 37.78-9.46-6.74-19.31-12.98-29.77-18.06-8.7-4.11-18.55-4.2101-27.97-4.14-16.71 0.52-33.93 3.1-48.71 11.35-8.8201 4.48-17.5 9.22-26.32 13.7-58.17 28.64-118.07 53.92-179.59 74.47-8.37 2.5399-16.62 5.83-25.41 6.5699 13.75-10.49 29.55-17.84 45.32-24.73 35.45-15.35 72.61-26.82 106.76-45.11 25.53-13.43 49.38-31.08 66.76-54.34-8.33 5.5699-15.91 12.18-24.32 17.64-31.44 20.63-66.04 36.02-101.39 48.62-18.93 7.04-38.32 12.78-57.75 18.26-7.43 1.88-14.8 4.24-22.5 4.7101 6.37-4.16 13.63-6.53 20.48-9.7001 38.46-16.47 76.89-33.26 113.57-53.46 14.55-8.16 28.89-16.76 42.39-26.58 9.9199-7.5601 20.05-15.26 27.54-25.37-28.44 20.35-60.13 35.47-91.7 50.22-21.31 9.72-42.82 19-64.71 27.33-8.14 2.85-16.08 6.6801-24.75 7.5801 5.68-6.15 13.42-9.6901 20.51-13.9 15.73-8.4601 31.8-16.27 47.77-24.27 17.53-8.58 34.73-17.83 51.97-26.99 16.76-9.52 33.44-19.37 48.58-31.38 12.04-9.53 23.75-20.3 30.84-34.14 4.48-8.66 6.15-18.89 3.61-28.38-4.7599-16.24-5.5499-33.42-4.3799-50.22z" fill="#AF5727" stroke="#AF5727"/>
	<path d="m537.33 963.12l0.63 0.06c0.23 5.1-0.01 10.2-0.41 15.28-0.34-2.46-0.72-4.91-0.69-7.38 0.07-2.66 0.28-5.31 0.47-7.96z" fill="#C27B39" stroke="#C27B39"/>
	<path d="m472.26 995.22c4.18-0.98 8.51-0.64 12.77-1.0699 0.11 0.33 0.33 0.99 0.44 1.33 3.22 1.43 6.6 2.51 9.67 4.28 6.68 7.21 12.22 15.73 14.75 25.32 3.55 13.62 3.18 28.46-2.13 41.59-3.6 9.4299-10.13 18.26-19.51 22.52-5.16 2.39-10.97 2.1801-16.51 1.9901-0.38-0.01-1.13-0.05-1.51-0.0701-4.19-3.26-9.04-5.74-12.47-9.89-9.51-10.96-13.5-25.89-12.98-40.21 0.23-13.01 4.24-26.38 12.91-36.29 3.87-4.4 8.89-7.91 14.57-9.5m-18.13 24.9c-6.09 15.15-5.2 32.64 1.3 47.53 4.18 8.88 10.79 17.7 20.63 20.56-8.82-10.15-15.44-22.37-17.49-35.77-1.92-12.59-1.12-26.21 5.46-37.4 3.05-5.65 8.18-9.65 12.29-14.45-10.24 2.0401-18.32 10.07-22.19 19.53m28.28-17.66c-2.92 1.12-5.14 3.47-7.24 5.7-7.69 8.77-12.18 20.21-13.06 31.8-1 11.45 2.38 22.97 8.09 32.82 3.03 4.7899 6.67 9.86 12.2 11.89 3.35 1.13 6.22-1.7101 8.42-3.8401 8.29-8.9099 12.83-20.9 13.95-32.91 0.99-14.02-3.37-28.51-12.16-39.5-2.59-2.87-5.95-6.62-10.2-5.96z" fill="#E3DDAA" stroke="#E3DDAA"/>
	<path d="m495.14 999.76c1.59 0.89 3.14 1.84 4.66 2.87 0.57 0.4 1.7 1.2 2.27 1.6 0.2-1.17 0.4-2.33 0.61-3.48-0.03 1.45-0.05 2.9-0.06 4.37 10.6 11.97 16.95 27.83 16.91 43.87-0.3 12.3-3.64 25.17-12.1 34.46-5.11 5.8601-12.52 9.92-20.37 10.21-5.19 0.1699-10.68 0.21-15.32-2.48 5.54 0.1899 11.35 0.3999 16.51-1.9901 9.38-4.2599 15.91-13.09 19.51-22.52 5.31-13.13 5.68-27.97 2.13-41.59-2.53-9.59-8.07-18.11-14.75-25.32z" fill="#C3BD67" stroke="#C3BD67"/>
	<path d="m454.13 1020.1c3.87-9.46 11.95-17.49 22.19-19.53-4.11 4.8-9.24 8.8-12.29 14.45-6.58 11.19-7.38 24.81-5.46 37.4 2.05 13.4 8.67 25.62 17.49 35.77-9.84-2.86-16.45-11.68-20.63-20.56-6.5-14.89-7.39-32.38-1.3-47.53z" fill="#C4BE67" stroke="#C4BE67"/>
	<path d="m482.41 1002.5c4.25-0.66 7.61 3.09 10.2 5.96 8.79 10.99 13.15 25.48 12.16 39.5-1.12 12.01-5.66 24-13.95 32.91-2.2 2.13-5.07 4.9701-8.42 3.8401-5.53-2.03-9.17-7.1001-12.2-11.89-5.71-9.85-9.09-21.37-8.09-32.82 0.88-11.59 5.37-23.03 13.06-31.8 2.1-2.23 4.32-4.58 7.24-5.7z" fill="#FFFCC7" stroke="#FFFCC7"/>
	<path d="m1187.8 1170.7c10.14-2.4601 20.8-4.9401 31.21-2.7001 5.9301 1.1801 9.98 6.01 13.55 10.52 18.56 23.37 41.32 43.01 65.13 60.86 31.21 22.9 64.94 42.15 99.48 59.55 31.79 15.58 64.24 29.79 97.18 42.77 16.61 6.38 33.06 13.16 49.8 19.22 19.63 7.3 39.19 14.78 58.55 22.77-26.6 23.39-51.41 48.91-72.96 77.07-17.67 22.91-33.33 47.34-47.18 72.74-3.7101 6.98-5.1901 14.83-6.61 22.53-3.54 21.6-4.92 43.5-8.9701 65.02-1.1599 7.2-6.9299 12.24-11.77 17.18-14.25 13.66-30.4 25.16-46.6 36.37-16.83 11.45-34.17 22.14-51.91 32.11-19.76 10.88-39.96 21.17-61.29 28.64-10.46 3.58-21.32 6.58-32.44 6.6299 0.2001-19.2 1.15-38.45 4.6101-57.37 6.33-37.7 18.87-74.19 35.35-108.62 20.15-41.91 46.53-80.8 77.94-115.09 23.29-24.96 49.14-47.69 77.94-66.11 7.62-5.1801 15.87-9.35 23.43-14.63-22.53-2.8199-45.18-5.13-67.41-9.96-31.17-6.23-61.73-15.83-90.45-29.51-28.46-13.84-54.48-32.75-76.06-55.93-13.15-13.99-24.65-29.39-36.76-44.26-8.3301-10.07-17.78-20.14-30.39-24.64-10.39-3.5099-21.87-2.6399-32.11 0.9801-5.3101-8.8-10.67-17.58-15.71-26.54 17.7-7.6797 35.8-14.58 54.45-19.6z" fill="#AF5727" stroke="#AF5727"/>
	<path d="m830.9 1180.2c8.79 1.78 17.17 5.0601 25.47 8.39 13.25 5.66 26.52 12.98 35.21 24.83 3.69 4.85 5.29 11.64 11.23 14.44-1.32 17.95-7.07 36.19-18.86 50.08-8.84 10.99-21.26 18.57-34.2 23.78-9.58 3.76-19.54 6.61-29.7 8.23 0.23-5.88 0.94-12.26 5.1-16.78 3.02-3.6101 8.06-4.65 11.05-8.25-3.07-5.4601-8.97-8.9301-11.11-15.01-2.07-4.0701-1.35-9.5601 2.72-12.08 7.26-4.49 16.18-3.4 24.3-3.13-7.9-3.9199-16.58-6.61-23.38-12.43-1.74-1.51-3.63-3.66-2.92-6.13 1.63-3.5601 5.59-5.3301 9.24-6.01 7.21-1.14 14.57-0.3 21.7 0.99 6.09 1.0599 12.07 3.1899 18.34 2.96-0.64-2.73-3.52-4.0499-5.47-5.75-13.09-9.14-27.17-16.75-40.58-25.39-2.06-1.51-4.65-3-5.06-5.74 4.49-2.12 9.65-0.9399 14.41-0.7 9.35 0.88 18.61 2.61 27.99 3.0699-4.52-4.62-10.74-6.7-16.33-9.63-6.36-3.31-12.99-6.07-19.15-9.74z" fill="#AF5727" stroke="#AF5727"/>
	<path d="m584.53 1226.4c2.37-7.5701 4.29-15.3 7.25-22.66 0.92 1.91 2.0099 3.8099 2.54 5.9 1.56 8.47 3.76 16.82 4.7 25.4 1.96 14.56 2.72 29.29 2.77 43.99-0.81 19.76-4.24 39.32-8.1 58.68-10.6 49.88-31.44 98.76-66.56 136.37-11.35 13.04-26.01 22.61-37.57 35.44-20.8 22.85-38.3 48.53-53.69 75.27-8.23 14.99-15.96 30.35-21.49 46.56-3.84 11.8-7.2 24.11-6.36 36.65 0.43 7.9299 3.24 16.22 9.61 21.34 6.3 4.88 14.05 7.3 21.05 10.97 14.27 6.55 28.23 13.75 42.45 20.42 0.25 0.59 0.75 1.76 1.01 2.35-20.31-2.9399-40.41-7.6799-59.77-14.53-11.65-4.2799-23.29-9.1799-33.25-16.7-5.31-4-10.36-9.03-12.34-15.54-1.52-5.0599 0.18-10.23 1.37-15.15 9.94-40.74 27.4-79.54 50.54-114.47 14.18-20.96 30.1-41.19 50.09-56.94 6.3-5.3201 15.05-7.0701 20.33-13.69 10.99-12.49 17.34-28.18 23.68-43.35 16.42-42.28 27.88-86.24 40.14-129.85 7.02-25.54 14.05-51.08 21.6-76.46z" fill="#E67817" stroke="#E67817"/>
	<path d="m594.32 1209.7c4.33 8.1599 7.95 16.68 12.21 24.88 3.58 7.2 7.55 14.2 11 21.48 5.25 10.73 11.21 21.13 17.62 31.21-0.4-10.96-4.36-21.34-6.35-32.04-1.73-9.7699-5.96-19.96-2.21-29.78 4.55 10.51 6.23 21.93 9.1299 32.95 2.76 10.44 4.6201 21.31 9.79 30.92 0-11.31-1.79-22.67-0.15-33.93 0.2-3.76 2.55-6.76 5.28-9.11 1.88 7.25 2.36 14.74 2.83 22.19 0.7401 9.04 1.65 18.83 7.9 25.98 0.8-5.4801 1.05-11.07 2.66-16.38 0.79-3.05 3.42-4.99 5.6899-6.92 1.4901 5.8 2.33 11.75 2.7 17.73 2.64 34.45-6.86 68.49-19.24 100.3-14.38 36.08-32.79 70.38-51.73 104.23-18.94 34.15-38.58 67.91-56.44 102.64-16.72 32.48-32.12 65.79-43.38 100.6-2.87 9.22-6.38 18.72-5.09 28.56-4.78-0.87-9.61-1.38-14.4-2.0701-0.26-0.59-0.76-1.76-1.01-2.35-14.22-6.67-28.18-13.87-42.45-20.42-7-3.6699-14.75-6.09-21.05-10.97-6.37-5.12-9.18-13.41-9.61-21.34-0.84-12.54 2.52-24.85 6.36-36.65 5.53-16.21 13.26-31.57 21.49-46.56 15.39-26.74 32.89-52.42 53.69-75.27 11.56-12.83 26.22-22.4 37.57-35.44 35.12-37.61 55.96-86.49 66.56-136.37 3.86-19.36 7.29-38.92 8.1-58.68-0.05-14.7-0.81-29.43-2.77-43.99-0.9398-8.5799-3.1398-16.93-4.6998-25.4z" fill="#AF5727" stroke="#AF5727"/>
	<path d="m1149 1216.8c10.24-3.62 21.72-4.49 32.11-0.9801 12.61 4.5 22.06 14.57 30.39 24.64 12.11 14.87 23.61 30.27 36.76 44.26 21.58 23.18 47.6 42.09 76.06 55.93 28.72 13.68 59.28 23.28 90.45 29.51 22.23 4.83 44.88 7.14 67.41 9.96-7.5599 5.28-15.81 9.45-23.43 14.63-28.8 18.42-54.65 41.15-77.94 66.11-31.41 34.29-57.79 73.18-77.94 115.09-16.48 34.43-29.02 70.92-35.35 108.62-3.4601 18.92-4.41 38.17-4.6101 57.37-6.7899-0.0299-14.61-3.2599-16.36-10.45-9.0599-43.98-5.4199-90.47 10.38-132.51 13.39-36.19 34.83-68.96 60.14-97.91 23.21-26.48 49.56-50.05 77.36-71.61 8.12-6.5699 16.55-12.74 24.67-19.33 4.29-3.47 9.12-6.83 11.39-12.07-9.6-1.9-19.35-2.9401-28.93-4.8701-45.67-8.49-90.72-23.01-130.6-47.19-28.96-17.32-54.69-39.79-76.52-65.47-17-19.84-31.85-41.45-45.44-63.73z" fill="#E67817" stroke="#E67817"/>
	<path d="m814.42 1382.6c0.14 0.6801 0.43 2.04 0.58 2.72 0.38 5.5901 0.06 11.22 0.14 16.83-1.74-6.3801-1.69-13.05-0.72-19.55z" fill="#C48143" stroke="#C48143"/>
	<path d="m597.53 1772.5c11.59-1.09 23.31-1.01 34.9-0.01-6.76 1.13-13.62 0.7-20.42 0.79-4.84 0.03-9.7 0.03-14.48-0.78z" fill="#C27A36" stroke="#C27A36"/>
</g>
</svg>
